<?xml version="1.0" encoding="UTF-8" standalone="no"?>
<!DOCTYPE svg PUBLIC "-//W3C//DTD SVG 1.1//EN" "http://www.w3.org/Graphics/SVG/1.1/DTD/svg11.dtd">
<svg xmlns="http://www.w3.org/2000/svg" version="1.1" viewBox="0 0 1448 1448">
<path fill="#ffffff" d="
  M 979.39 239.60
  C 1001.79 244.78 1019.09 262.51 1024.07 284.93
  C 1025.75 292.50 1026.07 304.12 1024.70 312.10
  C 1020.59 335.93 1003.19 355.14 979.58 360.72
  Q 974.17 361.99 965.17 361.99
  Q 573.39 362.01 181.61 362.00
  Q 172.50 362.00 167.01 360.72
  C 149.89 356.74 135.40 345.66 127.48 330.01
  C 107.39 290.27 132.23 238.26 179.34 238.26
  Q 571.17 238.24 963.00 238.25
  Q 973.58 238.25 979.39 239.60
  Z"
/>
<path fill="#ffffff" d="
  M 1280.43 662.18
  C 1302.34 666.62 1319.98 683.96 1325.43 705.53
  C 1328.28 716.79 1327.99 732.16 1324.49 743.06
  C 1317.96 763.44 1301.77 777.83 1281.23 782.81
  Q 1276.29 784.00 1269.14 784.00
  Q 723.82 784.00 178.49 784.00
  Q 171.12 784.00 166.12 782.78
  C 105.15 767.95 104.99 676.69 167.38 662.22
  Q 172.67 661.00 180.73 661.00
  Q 720.61 661.00 1260.50 661.00
  Q 1274.60 661.00 1280.43 662.18
  Z"
/>
<path fill="#ffffff" d="
  M 738.72 1084.60
  C 763.79 1090.46 781.42 1111.67 783.98 1137.25
  C 787.15 1168.99 769.97 1198.78 737.51 1205.79
  Q 731.95 1206.99 722.26 1206.99
  Q 451.54 1207.01 180.82 1206.99
  C 154.75 1206.99 131.28 1191.01 123.75 1165.84
  C 113.20 1130.62 129.73 1093.58 166.42 1084.47
  Q 171.27 1083.27 178.33 1083.27
  Q 450.49 1083.23 722.66 1083.26
  Q 732.99 1083.26 738.72 1084.60
  Z"
/>
</svg>
